<svg viewBox="0 0 521 800" xmlns="http://www.w3.org/2000/svg"><path d="m238.09 102.91c8.15-7.93 11.2-19.71 10.56-32.25-.76-14.69-2.57-29.32-4.1-44-.58-5.56-2.35-11.08-2.23-16.58.08-3.36 1.9-8.17 4.45-9.56s7.32 0 10.35 1.6c9.41 5 13.12 13.54 13.76 23.92 2 32.37-.76 64.05-12.93 94.47-1 2.59-1.48 5.53-2.93 7.84-7.2 11.42-3 19.56 5.18 29.13 46 54.09 89.51 110.07 126.13 171.07 29.23 48.75 49.67 101.45 68.44 154.73 26.08 74.06 45.2 150.1 63.45 226.36 6.47 27 .91 51.6-19.56 70.77-28.58 26.79-67.17 22.28-90.17-9.42-9-12.35-13.95-26.32-17.51-41.11-14.18-58.88-28.06-117.88-43.41-176.44-20.23-77.23-53.22-149.44-90.25-219.84-13.61-25.89-27.07-51.86-40.66-77.76a79.46 79.46 0 0 0 -4.5-6.82c-1.24 2.37-2.81 4.63-3.65 7.13-13.69 40.7-27.2 81.46-41 122.12-1.92 5.62-1.74 8.43 4.79 10.13 6.82 1.78 13.38 4.79 19.85 7.72 17.27 7.88 24.85 21.88 24.19 40.41a71.36 71.36 0 0 1 -3.11 18q-50.05 164.12-100.57 328.12c-1.15 3.74-4.21 8.27-7.55 9.69-8.27 3.53-17.2 7.58-25.91 7.66-28.61.26-52.76-11.3-72.56-31.87-6.27-6.52-7.88-13.52-5.15-22.9 37-126.92 72.86-254.18 110.76-380.84 12.21-40.81 29.52-80.1 44.59-120q9.81-26 20-51.93c1.74-4.38 1.66-7.88-.73-12.12-9.7-17.34-19.24-34.73-28.43-52.34-7.82-15-5.7-21.83 8.58-31.21 20.5-13.46 41.79-10.81 58.27 7.26.34.38.65.78 1 1.17 11.21 12.78 11.21 12.78 22.56-2.31zm16-66.5v-.17c.26 15.22.63 30.45.68 45.68 0 3.1-.37 6.7-1.94 9.21-5.92 9.45-12.11 18.76-18.77 27.7-4.75 6.38 1.16 9 4.12 11.61 1.5 1.34 7.89.32 8.74-1.33 3.32-6.51 8.42-14.43 7-20.43-1.71-7.22-.41-8.81 4.26-14 4.42-4.87 4-14.82 4.15-22.57.06-3.23-2.42-6.08 1-9.38.83-.82-1-4.73-2.06-7-.65-1.41-3.28-2.91-3-3.55.63-1.56 2.49-2.59 3.76-3.92 1-1 2.54-2.2 2.51-3.26-.29-8.37-.4-16.81-1.59-25.08-.76-5.28-3.25-9.82-10-10.75-3.81-.52-4.5.12-3.83 3.38 1.57 7.99 3.3 15.92 5 23.86zm-180.85 756.59c7.22-.87 14.52-1.33 21.64-2.7 7.58-1.47 6.5-10.7 12.49-15 4.43-3.15 7.08-13 5.79-18.87-1.52-6.83-1.43-9 4.22-13.94 4.71-4.11 8.37-15 6.15-20.17-3.35-7.8-1.23-8.42 4-13.12 4.7-4.21 5.05-13.43 6.87-20.55.29-1.1-2.58-2.75-2.73-4.27-.2-2.11.8-4.32 1.28-6.49 6.47 2.12 5.9-3.24 7-6.68 1.51-4.59 3-9.19 4.28-13.84.67-2.38 2.87-5.33-2.06-6.24-.89-.16-1.9-2.83-1.77-4.25.09-1 2.35-2.86 3-2.62 5.66 2 5.57-2.48 6.57-5.56 1.57-4.82 2.87-9.73 4.41-14.56 1-3.08 2.93-6.23-2.56-7.12-.74-.11-1.76-2.58-1.5-3.68s2.19-2.93 3-2.74c6.27 1.58 6.26-3.27 7.42-6.89 1.61-5.06 3.07-10.16 4.71-15.2.87-2.65 1.56-4.71-2.66-4.65-.88 0-2.64-2.6-2.48-3.81s2.75-3.4 3.31-3.13c6.11 2.9 5.89-2.17 6.95-5.36 2-6 3.85-12 5.47-18.05.21-.79-1.28-2.09-2.09-3.07-1.25-1.52-2.58-3-3.88-4.44 1.76-.93 4.37-3.09 5.13-2.56 3.8 2.63 4.1-.23 4.82-2.55 2.23-7.17 4.4-14.36 6.59-21.55.64-2.1 1.28-3.71-2.35-2.89-1.08.25-2.84-2.5-4.28-3.88 1.9-.88 3.79-1.8 5.72-2.63 1.36-.58 3.74-.74 4-1.6 2.92-9.53 5.52-19.16 8.21-28.77v.18c3.08-9.48 6.21-19 9.13-28.49.13-.41-1.65-1.34-2.45-2.13-1.51-1.49-3-3-4.43-4.57 1.82-.62 3.68-1.16 5.45-1.89 1.29-.53 3.58-1.5 3.51-2-1.15-8.16-2.46-16.31-4.11-24.38-.42-2.08-1.82-5.09-3.66-.23-.37 1-3.65.83-5.59 1.2a28.92 28.92 0 0 1 .57-5.84c.32-1.11 2.57-2.1 2.42-2.83-1-4.54-12.12-7.68-16-4.61-2.82 2.25-6.75 1.93-6.09-1.36 1.49-7.44-3.78-6.93-7.66-8.23-5.05-1.69-10.27-2.92-15.29-4.7-1.24-.44-2-2.22-3-3.38a33.76 33.76 0 0 1 4.1-3c1.94-1 4.06-1.74 6.1-2.58a40.75 40.75 0 0 1 -3.66-3.91c-.8-1.11-1.83-2.69-1.57-3.77s2.4-3 3-2.79c7.42 3.18 6.76-3.18 7.93-6.8 1-3.07.43-6.78 1.83-9.55 5.24-10.37 10.39-20.64 9.73-32.75 0-.82.87-1.74 1.42-2.56 6-9 11.09-18.27 8.57-29.76-.2-.89 0-2.52.51-2.8 9-4.71 7.76-14.6 11.23-22.07.75-1.62 1.1-4.47.2-5.61-3.42-4.3-2.16-5.67 2.24-8.5 2.88-1.84 5.37-8.22 4.33-11.31-1.46-4.31-1.52-11.55-9.17-11.63-5.29 0-6.08-2.2-3.58-6.67a7.3 7.3 0 0 0 .45-5.67 143.79 143.79 0 0 0 -6.88-13c-1.1-2-2.48-3.78-3.74-5.66-1.17 2.08-3.63 4.41-3.28 6.2 1.38 7.14-1.51 11.65-6.16 16.89-3.79 4.28-4.92 11-6.78 16.82-.44 1.36.87 3.35 1.53 5s1.55 3.24 2.34 4.85c-1.68.71-3.41 1.32-5 2.14s-4 1.47-4.44 2.77c-1.64 4.66-2.1 9.77-3.94 14.34-3 7.42-8.74 14.32-9.58 21.86s-2.7 12.81-7.44 18.51c-3.39 4.06-4.36 10.18-6.2 15.46-.78 2.24-3.08 5.21 2 6 .91.13 2.23 2.95 1.92 4.18s-2.76 2.94-3.72 2.64c-5.36-1.66-5.85 2.23-7.06 5.53-2.38 6.47-5 12.87-7.16 19.39-2 5.77-3.72 11.62-5.16 17.53-.67 2.75.27 5.95-.61 8.58-2.9 8.77-7.12 17.2-9.13 26.14a102.14 102.14 0 0 1 -3 10.85c-3 8.86-8.56 17.46-6 27.61q-6.16 14.7-12.34 29.39l2.65 1q4.78-15.18 9.55-30.37c1.68-5.76 3.34-11.53 5-17.28.42-1.41 1-2.76 1.52-4.15 3-8.32 7.29-16.45 8.47-25 1.48-10.64 7.32-18.79 12.08-27.59 1.49-2.74 5.41-4.37 8.51-5.94 1.17-.59 3.16.44 4.78.73-.61 1.76-.79 4.69-1.89 5.09-9.15 3.35-10.66 11.93-13.22 19.39-5.77 16.81-10.54 34-16.26 50.78-22.07 64.91-45 129.54-66.33 194.68-11.95 36.42-21.53 73.62-32 110.53-.68 2.42-.69 6.08.67 7.86 12.29 16 26.79 28.66 48.53 29.08 1.15 0 2.89.42 3.36 1.23 3.22 5.57 8.45 4.48 13.42 4.36zm398.3-82.58c2 0 4.29.53 4.63-.06 1-1.77 2-4.13 1.59-6q-4.58-22.82-9.68-45.5c-14.09-62.85-30.79-124.9-56.9-184-.82-1.86-1.31-4.09-2.67-5.42a6.69 6.69 0 0 0 -5-1.58c-.76.11-1.74 2.83-1.6 4.27.2 1.94 1.43 3.76 2.15 5.66 9.19 24.49 20.16 48.5 27.17 73.61 13.87 49.66 25.55 99.94 38.13 150 .71 2.83 1.39 5.75 2.18 8.99zm-16.85 30.66c-3.84 4.94-3.07 11 1.85 14.63a10.37 10.37 0 0 0 12.22-16.76c-4.63-3.42-10.46-2.53-14.07 2.1zm-231.69-578.52c-4-3.49-10.75-3-14.44 1a10.08 10.08 0 0 0 .91 14.8 10.44 10.44 0 0 0 14.39-.73c3.83-4.09 3.42-11.29-.86-15.07z"/><path d="m93.8 748.55c3.26.09 5.71-.54 6.62.37s1 3.63.36 5.08c-.35.79-3.52 1.34-4.37.68-1.2-.94-1.41-3.12-2.61-6.13z"/><path d="m170 320.39c-.52 3.31-.21 5.83-1.21 6.57s-3.73.54-5.11-.26c-.73-.43-.88-3.62-.11-4.41 1.06-1.08 3.24-1.05 6.43-1.9z"/><path d="m99.29 732c-.53 3.33-.22 5.8-1.25 6.63s-3.68.64-5.09-.12c-.7-.37-.86-3.6-.08-4.43 1.03-1.08 3.22-1.15 6.42-2.08z"/><path d="m146.05 324.15c3.43 0 5.86-.65 6.75.23s1.21 3.54.77 5.14c-.18.66-3.41 1.34-4.4.69-1.25-.81-1.63-2.96-3.12-6.06z"/><path d="m144.09 356.47c-.16 3.32.43 5.8-.51 6.71s-3.67 1-5.15.39c-.77-.32-1.25-3.56-.55-4.48.91-1.21 3.12-1.43 6.21-2.62z"/><path d="m85.69 701.91c3.34.25 5.79-.26 6.64.68s.9 3.65.2 5c-.4.79-3.53 1.2-4.42.5-1.11-.88-1.31-3.09-2.42-6.18z"/><path d="m156.14 290.37c3.41.16 5.8-.41 6.72.51s1.16 3.53.64 5.05c-.23.69-3.46 1.25-4.44.58-1.23-.85-1.54-3.02-2.92-6.14z"/><path d="m82.94 686.36c3.3.29 5.73-.19 6.61.77s.86 3.64.16 5c-.39.78-3.54 1.19-4.37.49-1.16-.96-1.34-3.13-2.4-6.26z"/><path d="m179.35 421.79c.25-3.27-.25-5.71.71-6.62s3.64-.9 5.07-.23c.75.36 1.16 3.56.45 4.41-.97 1.17-3.15 1.34-6.23 2.44z"/><path d="m124.24 695.14c-.16 3.4.41 5.8-.5 6.7s-3.55 1.08-5.06.54c-.69-.24-1.23-3.44-.56-4.38.88-1.22 3.03-1.52 6.12-2.86z"/><path d="m185.23 453.06c0-3.34-.76-5.74.11-6.71s3.53-1.24 5-.73c.75.25 1.45 3.4.82 4.36-.77 1.26-2.93 1.64-5.93 3.08z"/><path d="m114.21 680.5c3.22.59 5.38.4 6.48 1.38.83.75 1 3.87.26 4.4-1.23.92-3.87 1.42-5 .68s-.95-3.22-1.74-6.46z"/><path d="m198 479.58c-1.94 3.33-4.39 5.29-7.33 1.34-.62-.84.86-3.25 1.37-4.94l6 3.78z"/><path d="m110.9 665.8c3.34 0 5.44-.51 6.67.28 1 .61 1.61 3.7 1 4.28-1.12 1.1-3.55 2-4.84 1.45s-1.47-2.93-2.83-6.01z"/><path d="m160.48 449.21c-.12 3.31.39 5.46-.44 6.72-.63.95-3.78 1.54-4.38.92-1.09-1.13-1.92-3.68-1.33-4.89s3.05-1.47 6.15-2.75z"/><path d="m110.65 649.63c1.67.45 3.85.43 4.85 1.51.76.82.58 3.94-.19 4.42a5.81 5.81 0 0 1 -5.07.26c-1.57-.91-2.44-3.05-3.61-4.66z"/><path d="m96.32 764.16c3.38 0 5.85-.76 6.75.12s1.22 3.61.72 5.2c-.22.71-3.46 1.38-4.46.73-1.25-.81-1.6-3.01-3.01-6.05z"/><path d="m166.45 480.54c-.49 3.27-.21 5.49-1.18 6.64-.76.89-4 1.16-4.51.48-.95-1.29-1.51-3.93-.78-5.1s3.25-1.11 6.47-2.02z"/><path d="m163.51 512.83c3.3-.12 5.72-.9 6.72 0s1.28 3.58.77 5.11c-.27.78-3.45 1.52-4.4.89-1.28-.83-1.67-3.06-3.09-6z"/><path d="m103.77 626.84c.39-3.32.07-5.48 1-6.71.69-.91 3.94-1.32 4.38-.72 1 1.28 1.59 3.8.92 5s-3.14 1.31-6.3 2.43z"/><path d="m148.4 514.94c3.32.45 5.47.16 6.66 1.09.89.71 1.23 3.93.63 4.36-1.32.94-3.83 1.58-5 .89s-1.25-3.15-2.29-6.34z"/><path d="m174.08 255.32c-.23 3.35.21 5.46-.64 6.68-.63.92-3.78 1.42-4.27.83-1-1.21-1.75-3.63-1.17-4.9s3-1.37 6.08-2.61z"/><path d="m73.69 768.53c-.45 3.25-.16 5.42-1.11 6.6-.7.87-3.92 1.12-4.41.46-.94-1.27-1.5-3.85-.79-5s3.17-1.14 6.31-2.06z"/><path d="m135.08 621.48c.11-3.32-.4-5.43.42-6.68.62-.95 3.74-1.56 4.29-1 1.06 1.13 1.87 3.6 1.3 4.82s-2.97 1.53-6.01 2.86z"/><path d="m133.87 525.67c.26-3.34-.25-5.83.7-6.67s3.69-.94 5.15-.27c.75.34 1.15 3.57.43 4.49-.93 1.18-3.15 1.33-6.28 2.45z"/><path d="m138.25 548.81c3.34.3 5.75-.16 6.69.8s.92 3.57.3 5c-.3.7-3.5 1.09-4.39.37-1.19-.91-1.4-3.07-2.6-6.17z"/><path d="m135.77 581.27c0 3.35.65 5.73-.22 6.64s-3.55 1.21-5 .65c-.79-.31-1.43-3.42-.79-4.37.81-1.19 2.97-1.55 6.01-2.92z"/><path d="m120.53 584.24c-.16 3.23.3 5.32-.51 6.58-.58.89-3.67 1.38-4.26.75-1.07-1.12-1.91-3.65-1.32-4.8s3.05-1.37 6.09-2.53z"/><path d="m146.51 595.34c3.41.24 5.84-.28 6.62.63.93 1.08.93 3.55.37 5.07-.24.65-3.38 1.12-4.29.44-1.21-.86-1.41-2.97-2.7-6.14z"/><path d="m127 574.69c0-3-.65-5.35.13-6a6.21 6.21 0 0 1 5.05-.86c.71.22 1.42 3.56.76 4.41-.94 1.21-3.11 1.4-5.94 2.45z"/><path d="m131.73 558.53c-3.4-.44-5.56-.12-6.7-1-.93-.77-.66-3-.91-4.61 1.75-.27 3.92-1.28 5.15-.6s1.3 3.01 2.46 6.21z"/><path d="m148.64 563.13c-.12 3.34.48 5.73-.42 6.67s-3.54 1-5 .38c-.75-.32-1.25-3.39-.6-4.3.9-1.19 3.02-1.47 6.02-2.75z"/><path d="m157.78 560.85c2.84.92 5 1 6 2.15.71.84.2 4.17-.43 4.38a6.64 6.64 0 0 1 -5.2-.46c-.79-.5-.26-2.99-.37-6.07z"/><path d="m131.62 598.53c2.58-.13 4.94-.87 5.54-.14 1 1.24 1 3.4 1.34 5.17-1.8.17-3.83.91-5.32.31-.88-.36-.9-2.87-1.56-5.34z"/><path d="m153.89 545.92c3.28.46 5.4.18 6.59 1.11.9.69 1.26 3.88.68 4.29-1.31.93-3.81 1.6-5 .92s-1.16-3.14-2.27-6.32z"/><path d="m135.53 533.5c3.34.2 5.46-.26 6.63.59.94.68 1.47 3.76.85 4.34-1.12 1-3.61 1.76-4.83 1.17s-1.4-2.97-2.65-6.1z"/><path d="m150.73 531c3.43 0 5.49-.5 6.73.28 1 .6 1.68 3.69 1.14 4.19-1.18 1.08-3.51 2-4.84 1.5-1.15-.42-1.56-2.86-3.03-5.97z"/><path d="m116 600.81c3.08.19 5.55-.27 6 .51.87 1.38.53 3.51.7 5.33-1.61.14-3.81 1-4.67.23-1.03-.96-1.11-3.17-2.03-6.07z"/><path d="m126.47 615.47c-.52 3.25-.29 5.37-1.24 6.52-.7.85-3.84 1.08-4.31.44-.91-1.27-1.48-3.81-.78-4.94s3.14-1.1 6.33-2.02z"/><path d="m136.71 629.05c3.25.25 5.38-.17 6.56.7.91.67 1.32 3.83.68 4.36-1.23 1-3.73 1.76-5 1.15-1.09-.53-1.21-3.09-2.24-6.21z"/><path d="m122.56 639.39c.07-3-.46-5.12.35-6.35.62-.94 3-.74 4.52-1 .34 1.77 1.26 3.73.79 5.25-.28.86-2.76 1.08-5.66 2.1z"/><path d="m167.43 535.67c.45-3.4.14-5.54 1.07-6.7.73-.92 4-1.3 4.35-.75.9 1.38 1.54 3.79.89 5.07-.57 1.12-3.06 1.26-6.31 2.38z"/><path d="m146.74 507.65c.24-3.39-.27-5.73.65-6.63s3.48-1 4.92-.45c.71.28 1.22 3.38.56 4.27-.87 1.16-2.99 1.48-6.13 2.81z"/><path d="m130.68 654.07c-1.7-.38-3.88-.27-4.94-1.3-.8-.78-.15-3-.15-4.63 1.8 0 3.89-.54 5.31.2s2 2.77 2.94 4.24z"/><path d="m142.66 484.34c3.29.16 5.39-.31 6.66.52.94.61 1.54 3.78 1 4.26-1.22 1-3.67 1.89-4.9 1.31s-1.49-3.03-2.76-6.09z"/><path d="m168.92 495.71c-.29 3.39.11 5.54-.78 6.77-.67.94-3.9 1.43-4.36.83-1-1.24-1.65-3.71-1-4.94s3.02-1.37 6.14-2.66z"/><path d="m105.34 635.07c3.35-.12 5.41-.78 6.71-.06 1 .53 1.71 3.64 1.14 4.23-1.12 1.15-3.47 2.11-4.85 1.68-1.12-.36-1.56-2.85-3-5.85z"/><path d="m73.41 792.94c-1-.69-2.72-1.21-3-2.13a8.76 8.76 0 0 1 .12-5.22c.23-.6 3.47-1 3.83-.44a8.74 8.74 0 0 1 1.32 5.08c0 .95-1.58 1.83-2.45 2.74z"/><path d="m134.07 661.76c-.08 3 .45 5.15-.37 6.41-.59.91-4 1.34-4.38.76a6.33 6.33 0 0 1 -.9-5.08c.33-.93 2.8-1.11 5.65-2.09z"/><path d="m83.77 782.13c3.3.24 5.39-.18 6.59.67.92.64 1.44 3.71.84 4.25-1.16 1-3.65 1.86-4.82 1.27s-1.38-3.04-2.61-6.19z"/><path d="m88.56 765.4c0 3.32.73 5.79-.14 6.62-1 1-3.61 1.12-5.13.56-.76-.28-1.39-3.44-.74-4.37.84-1.21 3.01-1.51 6.01-2.81z"/><path d="m194.28 236c3.3-.17 5.65-1 6.67-.15s1.24 3.53.67 5c-.33.85-3.35 1.62-4.28 1-1.25-.77-1.64-2.85-3.06-5.85z"/><path d="m176.9 223.23c2.53-.07 4.85-.75 5.52 0 1 1.17.92 3.34 1.29 5.09-1.81.17-3.86.92-5.34.3-.88-.36-.86-2.89-1.47-5.39z"/><path d="m179.05 238.34c3.24.2 5.33-.24 6.54.6.91.63 1.44 3.67.83 4.26-1.11 1.05-3.64 1.88-4.76 1.28s-1.4-3.04-2.61-6.14z"/><path d="m63.2 753.61c3.26.46 5.73.11 6.52 1.1s.55 3.67-.24 5c-.44.75-3.58.95-4.34.21-1.08-1.04-1.08-3.19-1.94-6.31z"/><path d="m182 253.41c3.31.53 5.43.28 6.55 1.22.87.74 1.16 3.87.55 4.31-1.3.92-3.79 1.54-5 .86s-1.1-3.11-2.1-6.39z"/><path d="m78.2 751.2c3.33.21 5.42-.23 6.66.61.92.62 1.48 3.69.89 4.24-1.13 1.05-3.62 1.88-4.78 1.29s-1.47-3.01-2.77-6.14z"/><path d="m163.28 416.54c3 .57 5.15.38 6.26 1.37.85.75.4 3 .53 4.55-1.76 0-3.83.66-5.17-.07-.9-.51-.9-2.86-1.62-5.85z"/><path d="m184.7 269.45c3 .05 5.35-.55 6 .24a6.34 6.34 0 0 1 .86 5.06c-.19.67-3.56 1.39-4.38.73-1.18-.98-1.41-3.17-2.48-6.03z"/><path d="m176.86 271.27c-.22 3 .23 5.42-.59 6a6 6 0 0 1 -5.07.47c-.72-.3-1.18-3.64-.46-4.45 1.01-1.14 3.26-1.17 6.12-2.02z"/><path d="m173.39 295.45c-.06-3.3-.69-5.38.06-6.64.57-1 3.67-1.7 4.25-1.12 1.14 1.12 2.08 3.5 1.61 4.85-.39 1.13-2.9 1.53-5.92 2.91z"/><path d="m154 274.71c3 .21 5.38-.24 5.95.57a6.08 6.08 0 0 1 .44 5.06c-.28.71-3.62 1.18-4.37.48-1.09-1.05-1.14-3.24-2.02-6.11z"/><path d="m174.91 302.88c3 .33 5.17 0 6.42.9.85.63.41 3 .55 4.61-1.78.16-3.84.91-5.23.25-.94-.45-.94-2.88-1.74-5.76z"/><path d="m83.11 734.34c-.07 3.37.56 5.76-.31 6.61-1 1-3.51 1.15-5 .67-.68-.22-1.3-3.39-.65-4.34.77-1.21 2.9-1.54 5.96-2.94z"/><path d="m134 341.92c3.21.43 5.67.06 6.48 1.05s.66 3.71-.13 5c-.49.8-3.65 1-4.42.31-1.14-1.04-1.13-3.23-1.93-6.36z"/><path d="m151.74 354.78c3.43.29 5.86-.19 6.75.76s.95 3.59.36 5.1c-.27.67-3.49 1.08-4.43.37-1.19-.9-1.42-3.01-2.68-6.23z"/><path d="m150 347.07c.4-3.37 0-5.78.95-6.58s3.58-.81 5-.16c.69.32 1 3.46.33 4.31-.91 1.14-3.04 1.29-6.28 2.43z"/><path d="m167.15 304.76c-.49 3.3-.22 5.42-1.15 6.54-.74.87-3.88 1.17-4.32.56-.93-1.31-1.54-3.78-.87-5s3.1-1.12 6.34-2.1z"/><path d="m96.49 716.46c-.53 3.27-.3 5.4-1.24 6.54-.74.89-3.89 1.23-4.32.64-.92-1.3-1.57-3.84-.88-5s3.18-1.16 6.44-2.18z"/><path d="m73.38 727.85c.77-3.59.64-5.79 1.68-6.87.76-.79 3.59-.71 4.51.1s1.15 3.59.43 4.43c-1 1.13-3.15 1.22-6.62 2.34z"/><path d="m145.22 316.14c-.15-3.07-.88-5.45-.15-6.05 1.25-1 3.41-.95 5.19-1.33.32 1.58 1.39 3.68.76 4.62-.83 1.23-3.02 1.54-5.8 2.76z"/><path d="m165.5 344.47c.4-3.37.08-5.51 1-6.73.68-.91 3.88-1.33 4.31-.75.95 1.27 1.6 3.75.94 4.93s-3.07 1.36-6.25 2.55z"/><path d="m140.3 379.78c.18-2.69-.21-5.14.49-5.52a6.84 6.84 0 0 1 5.21-.26c.66.26 1.08 3.65.38 4.31-1.14.98-3.28.87-6.08 1.47z"/><path d="m182.17 428.1c1.65.5 3.81.52 4.82 1.62a5.88 5.88 0 0 1 1.14 4.91c-.27.88-3.42 1.91-4.2 1.35-1.24-.87-1.58-3-2.3-4.62z"/><path d="m187.87 468.4c.11-3.26-.39-5.37.42-6.63.62-1 3.79-1.61 4.27-1 1.05 1.21 1.91 3.65 1.34 4.89s-3 1.45-6.03 2.74z"/><path d="m156.16 466.08c2.87.23 5-.17 6.23.7.8.57.93 3.88.23 4.38a5.94 5.94 0 0 1 -5 .56c-.85-.36-.8-2.84-1.46-5.64z"/><path d="m145 587.29c.14-3-.36-5.49.42-6 1.33-.9 3.47-.6 5.27-.8.17 1.61 1.06 3.82.34 4.68-.94 1.12-3.15 1.21-6.03 2.12z"/><path d="m106.82 730.21c3.07.3 5.21-.08 6.37.81.92.7.63 3 .88 4.53-1.76.17-3.75.9-5.17.3-.9-.4-1.08-2.72-2.08-5.64z"/><path d="m104.37 714.47c3 .51 5.09.31 6.22 1.27.81.68.29 2.92.36 4.47-1.71.06-3.74.69-5 0-.95-.52-.87-2.84-1.58-5.74z"/><path d="m128 360c.2 2.48 1 4.93.31 5.44-1.26 1-3.37.79-5.13 1.09-.2-1.77-1-3.74-.38-5.21.35-.8 2.86-.77 5.2-1.32z"/><path d="m204.25 426c-.37 3-.06 5.12-.95 6.26-.67.85-2.88.5-4.4.69-.18-1.73-.92-3.69-.34-5.11.36-.92 2.72-.98 5.69-1.84z"/><path d="m101.32 699.3c3.06.28 5.17-.11 6.34.77.88.66.57 2.93.8 4.48-1.74.18-3.7.93-5.12.35-.92-.38-1.05-2.7-2.02-5.6z"/><path d="m98.85 683.47c3 .55 5.11.36 6.22 1.33.83.71.34 2.94.44 4.49-1.73.06-3.76.68-5.09 0-.91-.5-.84-2.84-1.57-5.82z"/><path d="m168 448.65c3-.35 5.19-1.24 6-.54 1.14 1 1.28 3.15 1.84 4.82-1.51.42-3.45 1.63-4.42 1.09-1.3-.72-1.86-2.79-3.42-5.37z"/><path d="m172.3 470.61c.2-3.05-.25-5.36.51-5.88a6.43 6.43 0 0 1 5-.51c.59.19 1.08 3.41.4 4.24-.93 1.1-3.04 1.2-5.91 2.15z"/><path d="m96 668.86c2.61-.13 4.83-.86 5.52-.13 1.06 1.12 1.06 3.23 1.52 4.92-1.74.2-3.71 1-5.13.39-.91-.38-1.09-2.71-1.91-5.18z"/><path d="m92.54 659.44c.51-1.64.57-3.77 1.66-4.78a6.06 6.06 0 0 1 4.89-1.19c.79.2 1.81 3.28 1.26 4.14-.78 1.23-2.89 1.63-4.44 2.38z"/><path d="m181.39 478.07c-.08 2.93.46 5.36-.28 5.84a6 6 0 0 1 -5 .45c-.77-.33-1.31-3.58-.64-4.32.97-1.1 3.13-1.14 5.92-1.97z"/><path d="m176.76 494.33c3.1.24 5.22-.19 6.39.67.89.67.6 2.95.83 4.51-1.72.2-3.67 1-5.08.41-.9-.37-1.11-2.67-2.14-5.59z"/><path d="m172.57 431.51c.17 2.69.9 4.68.21 5.64s-2.84 1.07-4.34 1.54c-.41-1.7-1.38-3.54-1-5 .21-.9 2.63-1.21 5.13-2.18z"/><path d="m252.09 17.83c3.07.22 5.44-.24 6 .57.91 1.28.6 3.41.8 5.18-1.61.18-3.85 1.09-4.7.37-1.12-.95-1.19-3.19-2.1-6.12z"/><path d="m254.12 36.41c.84-.93 1.63-2.56 2.54-2.64a9 9 0 0 1 5.24 1.13c.58.36.37 3.67-.17 3.88a9.25 9.25 0 0 1 -5.29.31c-.95-.23-1.57-1.85-2.34-2.85z"/><path d="m237.08 116.63c3.31-.08 5.38-.72 6.64 0 1 .57 1.69 3.65 1.11 4.25-1.1 1.14-3.48 2.09-4.82 1.64-1.13-.36-1.53-2.86-2.93-5.89z"/></svg>